<svg id="visual" viewBox="0 0 900 150" width="900" height="150" xmlns="http://www.w3.org/2000/svg" xmlns:xlink="http://www.w3.org/1999/xlink" version="1.1"><path d="M0 63L25 59.3C50 55.7 100 48.3 150 40.8C200 33.3 250 25.7 300 25.5C350 25.3 400 32.7 450 41.2C500 49.7 550 59.3 600 58.2C650 57 700 45 750 40.3C800 35.7 850 38.3 875 39.7L900 41L900 151L875 151C850 151 800 151 750 151C700 151 650 151 600 151C550 151 500 151 450 151C400 151 350 151 300 151C250 151 200 151 150 151C100 151 50 151 25 151L0 151Z" fill="#f7770f"></path><path d="M0 48L25 50.3C50 52.7 100 57.3 150 56.8C200 56.3 250 50.7 300 48.2C350 45.7 400 46.3 450 47.2C500 48 550 49 600 57C650 65 700 80 750 85.5C800 91 850 87 875 85L900 83L900 151L875 151C850 151 800 151 750 151C700 151 650 151 600 151C550 151 500 151 450 151C400 151 350 151 300 151C250 151 200 151 150 151C100 151 50 151 25 151L0 151Z" fill="#bc5f1b"></path><path d="M0 97L25 98.8C50 100.7 100 104.3 150 99.7C200 95 250 82 300 80C350 78 400 87 450 91.7C500 96.3 550 96.7 600 98C650 99.3 700 101.7 750 102.3C800 103 850 102 875 101.5L900 101L900 151L875 151C850 151 800 151 750 151C700 151 650 151 600 151C550 151 500 151 450 151C400 151 350 151 300 151C250 151 200 151 150 151C100 151 50 151 25 151L0 151Z" fill="#83471e"></path><path d="M0 126L25 123.7C50 121.3 100 116.7 150 110.5C200 104.3 250 96.7 300 96.7C350 96.7 400 104.3 450 109.2C500 114 550 116 600 111.3C650 106.7 700 95.3 750 90.7C800 86 850 88 875 89L900 90L900 151L875 151C850 151 800 151 750 151C700 151 650 151 600 151C550 151 500 151 450 151C400 151 350 151 300 151C250 151 200 151 150 151C100 151 50 151 25 151L0 151Z" fill="#4d301d"></path><path d="M0 111L25 115.3C50 119.7 100 128.3 150 131C200 133.7 250 130.3 300 127.8C350 125.3 400 123.7 450 122.8C500 122 550 122 600 123.3C650 124.7 700 127.3 750 130.5C800 133.7 850 137.3 875 139.2L900 141L900 151L875 151C850 151 800 151 750 151C700 151 650 151 600 151C550 151 500 151 450 151C400 151 350 151 300 151C250 151 200 151 150 151C100 151 50 151 25 151L0 151Z" fill="#1a1a1a"></path></svg>