<svg id="visual" viewBox="0 0 900 100" width="900" height="100" xmlns="http://www.w3.org/2000/svg" xmlns:xlink="http://www.w3.org/1999/xlink" version="1.1"><path d="M0 42L25 39.5C50 37 100 32 150 26.8C200 21.7 250 16.3 300 16.2C350 16 400 21 450 26.8C500 32.7 550 39.3 600 38.5C650 37.7 700 29.3 750 26.2C800 23 850 25 875 26L900 27L900 101L875 101C850 101 800 101 750 101C700 101 650 101 600 101C550 101 500 101 450 101C400 101 350 101 300 101C250 101 200 101 150 101C100 101 50 101 25 101L0 101Z" fill="#1a1a1a"></path><path d="M0 32L25 33.5C50 35 100 38 150 37.5C200 37 250 33 300 31.3C350 29.7 400 30.3 450 31C500 31.7 550 32.3 600 37.7C650 43 700 53 750 56.7C800 60.3 850 57.7 875 56.3L900 55L900 101L875 101C850 101 800 101 750 101C700 101 650 101 600 101C550 101 500 101 450 101C400 101 350 101 300 101C250 101 200 101 150 101C100 101 50 101 25 101L0 101Z" fill="#151515"></path><path d="M0 64L25 65.2C50 66.3 100 68.7 150 65.7C200 62.7 250 54.3 300 53.2C350 52 400 58 450 61C500 64 550 64 600 64.8C650 65.7 700 67.3 750 67.8C800 68.3 850 67.7 875 67.3L900 67L900 101L875 101C850 101 800 101 750 101C700 101 650 101 600 101C550 101 500 101 450 101C400 101 350 101 300 101C250 101 200 101 150 101C100 101 50 101 25 101L0 101Z" fill="#101010"></path><path d="M0 84L25 82.3C50 80.7 100 77.3 150 73.2C200 69 250 64 300 64C350 64 400 69 450 72.2C500 75.3 550 76.7 600 73.7C650 70.7 700 63.3 750 60.3C800 57.3 850 58.7 875 59.3L900 60L900 101L875 101C850 101 800 101 750 101C700 101 650 101 600 101C550 101 500 101 450 101C400 101 350 101 300 101C250 101 200 101 150 101C100 101 50 101 25 101L0 101Z" fill="#090909"></path><path d="M0 73L25 76C50 79 100 85 150 86.8C200 88.7 250 86.3 300 84.7C350 83 400 82 450 81.5C500 81 550 81 600 81.8C650 82.7 700 84.3 750 86.5C800 88.7 850 91.3 875 92.7L900 94L900 101L875 101C850 101 800 101 750 101C700 101 650 101 600 101C550 101 500 101 450 101C400 101 350 101 300 101C250 101 200 101 150 101C100 101 50 101 25 101L0 101Z" fill="#000000"></path></svg>